<?xml version="1.0" standalone="no"?>
<!DOCTYPE svg PUBLIC "-//W3C//DTD SVG 20010904//EN"
 "http://www.w3.org/TR/2001/REC-SVG-20010904/DTD/svg10.dtd">
<svg version="1.0" xmlns="http://www.w3.org/2000/svg"
 width="720.000000pt" height="720.000000pt" viewBox="0 0 720.000000 720.000000"
 preserveAspectRatio="xMidYMid meet">

<g transform="translate(0.000000,720.000000) scale(0.100000,-0.100000)"
fill="#000000" stroke="none">
<path d="M2744 6291 c-17 -10 -42 -34 -55 -53 -24 -33 -24 -36 -27 -313 -2
-154 0 -295 3 -313 11 -57 66 -107 140 -127 l65 -18 0 -948 0 -948 -57 -16
c-32 -9 -73 -28 -92 -42 -60 -46 -62 -62 -59 -388 3 -280 4 -295 24 -322 11
-15 36 -38 54 -51 l34 -22 545 2 546 3 33 23 c64 46 67 58 70 357 2 179 0 283
-8 308 -19 64 -63 104 -141 127 l-69 21 0 99 0 100 343 0 c360 0 498 9 658 41
338 67 550 282 633 643 81 345 66 971 -29 1261 -75 229 -200 378 -400 476
-118 58 -248 93 -399 108 -70 7 -411 11 -945 11 -803 0 -837 -1 -867 -19z
m1711 -880 c88 -36 100 -84 100 -381 0 -292 -12 -332 -102 -361 -25 -8 -152
-13 -370 -16 l-333 -5 0 392 0 392 338 -4 c238 -3 346 -8 367 -17z"/>
<path d="M3830 5318 l0 -32 30 29 c17 16 30 30 30 32 0 2 -13 3 -30 3 -27 0
-30 -3 -30 -32z"/>
<path d="M3920 5261 c-84 -83 -90 -91 -90 -130 0 -26 4 -41 13 -41 7 0 71 59
142 130 l130 130 -52 0 -53 0 -90 -89z"/>
<path d="M4102 5217 l-133 -133 39 -16 40 -16 148 149 149 149 -55 0 -55 0
-133 -133z"/>
<path d="M4263 5155 l-173 -173 7 -47 6 -47 183 183 c105 104 184 192 184 202
0 22 -18 57 -28 56 -4 0 -85 -78 -179 -174z"/>
<path d="M4293 4958 c-195 -195 -216 -228 -150 -228 28 0 50 18 185 153 l153
153 -3 52 -3 52 -182 -182z"/>
<path d="M4383 4825 c-46 -45 -83 -86 -83 -89 0 -3 21 -6 46 -6 42 0 51 5 90
44 39 39 44 48 44 90 0 25 -3 46 -7 46 -5 -1 -45 -39 -90 -85z"/>
<path d="M2294 5885 l-85 -84 3 -51 3 -50 135 135 135 135 -53 0 -53 0 -85
-85z"/>
<path d="M2393 5758 l-183 -183 0 -55 0 -55 186 186 185 185 -3 52 -3 52 -182
-182z"/>
<path d="M2388 5530 c-170 -170 -178 -180 -178 -218 0 -21 3 -42 7 -46 4 -4
87 73 185 171 l178 178 0 47 c0 27 -3 48 -7 47 -5 0 -88 -80 -185 -179z"/>
<path d="M2437 5352 c-176 -176 -179 -181 -117 -197 22 -5 44 14 185 154 l159
160 -24 26 c-13 14 -26 25 -29 25 -4 0 -82 -76 -174 -168z"/>
<path d="M2573 5265 l-153 -155 0 -52 0 -53 181 180 c171 171 207 211 196 221
-2 3 -20 7 -38 10 -33 4 -41 -2 -186 -151z"/>
<path d="M2602 5067 l-182 -183 0 -47 c0 -26 4 -47 8 -47 4 0 90 82 190 183
l182 183 0 47 c0 26 -4 47 -8 47 -4 0 -90 -82 -190 -183z"/>
<path d="M2603 4844 l-183 -184 0 -52 0 -53 190 191 c185 185 190 191 190 231
0 23 -3 44 -7 46 -5 3 -90 -78 -190 -179z"/>
<path d="M2602 4617 l-182 -183 0 -47 c0 -26 4 -47 8 -47 4 0 90 82 190 183
l182 183 0 47 c0 26 -4 47 -8 47 -4 0 -90 -82 -190 -183z"/>
<path d="M2603 4394 l-183 -184 0 -52 0 -53 190 191 c185 185 190 191 190 231
0 23 -3 44 -7 46 -5 3 -90 -78 -190 -179z"/>
<path d="M2602 4167 l-182 -183 0 -47 c0 -26 4 -47 8 -47 4 0 90 82 190 183
l182 183 0 47 c0 26 -4 47 -8 47 -4 0 -90 -82 -190 -183z"/>
<path d="M2603 3944 l-183 -184 0 -52 0 -53 190 191 c185 185 190 191 190 231
0 23 -3 44 -7 46 -5 3 -90 -78 -190 -179z"/>
<path d="M2602 3717 l-182 -183 0 -47 c0 -26 4 -47 8 -47 4 0 90 82 190 183
l182 183 0 47 c0 26 -4 47 -8 47 -4 0 -90 -82 -190 -183z"/>
<path d="M4619 3713 c-16 -3 -65 -44 -135 -114 -114 -116 -114 -117 -4 -76 41
15 75 40 145 108 l90 88 -35 -1 c-19 0 -47 -3 -61 -5z"/>
<path d="M4388 3691 c-31 -5 -59 -27 -159 -124 -66 -66 -119 -121 -117 -123 2
-2 31 1 63 6 58 9 62 12 172 122 62 62 113 116 113 120 0 9 -15 8 -72 -1z"/>
<path d="M3869 3658 l-32 -32 29 -13 c16 -7 36 -12 44 -13 15 0 90 69 90 83 0
4 -22 7 -49 7 -42 0 -54 -5 -82 -32z"/>
<path d="M4056 3621 c-68 -69 -69 -70 -56 -100 7 -18 16 -33 20 -36 3 -2 53
43 111 101 l104 104 -55 0 c-55 0 -56 0 -124 -69z"/>
<path d="M2751 3644 l-34 -36 34 7 c46 10 49 12 49 41 0 32 -9 30 -49 -12z"/>
<path d="M2508 3399 c-80 -82 -88 -93 -88 -129 0 -38 -1 -39 -52 -54 -54 -16
-125 -71 -147 -113 -6 -12 -11 -41 -11 -65 l0 -43 183 183 182 182 12 62 c7
34 11 63 10 64 -1 1 -41 -38 -89 -87z"/>
<path d="M2393 3058 l-183 -183 0 -55 0 -55 186 186 185 185 -3 52 -3 52 -182
-182z"/>
<path d="M2393 2834 l-183 -183 0 -53 0 -53 186 186 185 185 -3 51 -3 50 -182
-183z"/>
<path d="M2417 2632 l-178 -178 24 -22 c13 -12 28 -22 33 -22 5 0 83 74 173
164 l163 163 -19 37 -18 36 -178 -178z"/>
<path d="M2525 2540 l-150 -150 55 0 55 0 134 134 134 134 -31 16 c-17 9 -35
16 -39 16 -5 0 -76 -67 -158 -150z"/>
<path d="M2736 2524 c-69 -69 -126 -127 -126 -130 0 -2 22 -4 49 -4 l49 0 130
130 131 130 -54 0 -53 0 -126 -126z"/>
<path d="M2955 2520 l-130 -130 55 0 55 0 130 130 130 130 -55 0 -55 0 -130
-130z"/>
<path d="M3186 2524 c-69 -69 -126 -127 -126 -130 0 -2 22 -4 49 -4 l49 0 130
130 131 130 -54 0 -53 0 -126 -126z"/>
<path d="M3395 2510 l-120 -120 56 0 56 0 66 69 c65 67 67 71 67 120 0 28 -1
51 -3 51 -1 0 -56 -54 -122 -120z"/>
</g>
</svg>
